:FULLY-SPECIFIED
:FORCE-ALL-JOINTS-BE-3DOF
:DEGREES
1937
root 5.76828 13.6731 27.9451 1053.19 67.7102 330.118
lfemur -61.6552 6.52769 -3.10087
ltibia 67.26 0 0
lfoot -0.455595 0.0361149 0
ltoes -32.3126 0 0
rfemur -3.82251 -2.16385 16.458
rtibia 65.7835 0 0
rfoot -23.6684 -25.4567 0
rtoes -26.1725 0 0
lowerback 13.4944 4.5122 4.32915
upperback -0.397718 7.04923 3.48467
thorax -7.91685 3.35087 -0.120702
lowerneck -0.847062 15.765 6.32678
upperneck 6.07456 21.4994 -7.04978
head 3.76195 10.674 -2.35464
lclavicle 8.22995e-14 -5.11154e-14 0
lhumerus 65.4346 -30.934 46.8732
lradius 49.7976 0 0
lwrist 16.661 0 0
lhand -5.68939 32.0659 0
lfingers 7.12502 0 0
lthumb 20.1319 61.0647 0
rclavicle 8.22995e-14 -5.11154e-14 0
rhumerus -37.0117 27.9882 -76.3147
rradius 89.5374 0 0
rwrist -30.1368 0 0
rhand -15.2006 -405.584 0
rfingers 7.12502 0 0
rthumb 10.969 284.754 0
1938
root 5.63102 13.6864 27.9693 1052.38 67.6993 329.297
lfemur -61.6813 6.49864 -3.22983
ltibia 67.3577 0 0
lfoot -0.486988 0.161464 0
ltoes -32.2801 0 0
rfemur -3.99203 -2.22064 16.4965
rtibia 65.8975 0 0
rfoot -23.698 -25.4725 0
rtoes -26.1483 0 0
lowerback 13.5051 4.4801 4.32016
upperback -0.395811 7.00698 3.48534
thorax -7.92336 3.33107 -0.10699
lowerneck -0.852272 15.7503 6.31958
upperneck 6.04108 21.479 -7.0731
head 3.7518 10.6638 -2.36327
lclavicle 8.17788e-14 -5.1556e-14 0
lhumerus 65.2576 -31.2394 46.559
lradius 50.3216 0 0
lwrist 17.1437 0 0
lhand -5.66088 32.1805 0
lfingers 7.12502 0 0
lthumb 20.1594 61.1798 0
rclavicle 8.17788e-14 -5.1556e-14 0
rhumerus -36.9429 28.1041 -76.3178
rradius 89.4892 0 0
rwrist -30.0982 0 0
rhand -15.0803 -405.557 0
rfingers 7.12502 0 0
rthumb 11.0847 284.793 0
1939
root 5.49377 13.6998 27.9935 1051.68 67.6855 328.58
lfemur -61.7028 6.47925 -3.34113
ltibia 67.4454 0 0
lfoot -0.517121 0.269877 0
ltoes -32.2506 0 0
rfemur -4.1376 -2.27113 16.5304
rtibia 65.9915 0 0
rfoot -23.7249 -25.4875 0
rtoes -26.1284 0 0
lowerback 13.5145 4.45231 4.31335
upperback -0.394234 6.97063 3.48634
thorax -7.92906 3.31401 -0.0952453
lowerneck -0.856907 15.7372 6.31344
upperneck 6.01202 21.4607 -7.09318
head 3.74296 10.6548 -2.37075
lclavicle 8.12992e-14 -5.19208e-14 0
lhumerus 65.1011 -31.4953 46.2989
lradius 50.7689 0 0
lwrist 17.5389 0 0
lhand -5.64295 32.2824 0
lfingers 7.12502 0 0
lthumb 20.1767 61.2824 0
rclavicle 8.12992e-14 -5.19208e-14 0
rhumerus -36.8941 28.2012 -76.3256
rradius 89.4551 0 0
rwrist -30.078 0 0
rhand -14.976 -405.533 0
rfingers 7.12502 0 0
rthumb 11.185 284.827 0
1940
root 5.35651 13.7131 28.0177 1051.07 67.6683 327.955
lfemur -61.7201 6.46985 -3.4367
ltibia 67.525 0 0
lfoot -0.546866 0.363266 0
ltoes -32.2235 0 0
rfemur -4.26165 -2.31637 16.5606
rtibia 66.0665 0 0
rfoot -23.7496 -25.5022 0
rtoes -26.1127 0 0
lowerback 13.5228 4.42835 4.3087
upperback -0.392967 6.93956 3.48772
thorax -7.93404 3.2994 -0.0852744
lowerneck -0.861064 15.7254 6.30825
upperneck 5.98684 21.4443 -7.11037
head 3.73527 10.6467 -2.37722
lclavicle 8.08491e-14 -5.22142e-14 0
lhumerus 64.9622 -31.7054 46.0896
lradius 51.1469 0 0
lwrist 17.851 0 0
lhand -5.63604 32.3739 0
lfingers 7.12502 0 0
lthumb 20.1835 61.3749 0
rclavicle 8.08491e-14 -5.22142e-14 0
rhumerus -36.8657 28.2808 -76.3388
rradius 89.4354 0 0
rwrist -30.0773 0 0
rhand -14.8857 -405.512 0
rfingers 7.12502 0 0
rthumb 11.2718 284.856 0
1941
root 5.21926 13.7264 28.0419 1050.53 67.6468 327.407
lfemur -61.7333 6.47074 -3.51847
ltibia 67.5983 0 0
lfoot -0.577096 0.443538 0
ltoes -32.1982 0 0
rfemur -4.36662 -2.35742 16.5876
rtibia 66.1237 0 0
rfoot -23.7729 -25.517 0
rtoes -26.1009 0 0
lowerback 13.53 4.40771 4.3062
upperback -0.39199 6.91316 3.48957
thorax -7.93843 3.28694 -0.0768835
lowerneck -0.864838 15.7147 6.3039
upperneck 5.96503 21.4294 -7.12502
head 3.72857 10.6393 -2.38282
lclavicle 8.04164e-14 -5.2441e-14 0
lhumerus 64.8376 -31.8731 45.9277
lradius 51.4626 0 0
lwrist 18.0844 0 0
lhand -5.6406 32.4571 0
lfingers 7.12502 0 0
lthumb 20.1791 61.4593 0
rclavicle 8.04164e-14 -5.2441e-14 0
rhumerus -36.8581 28.3442 -76.3581
rradius 89.4302 0 0
rwrist -30.0975 0 0
rhand -14.8076 -405.494 0
rfingers 7.12502 0 0
rthumb 11.3468 284.881 0
1942
root 5.082 13.7398 28.0661 1050.06 67.6204 326.923
lfemur -61.7427 6.48225 -3.58839
ltibia 67.6674 0 0
lfoot -0.608686 0.512604 0
ltoes -32.1738 0 0
rfemur -4.45496 -2.39531 16.6121
rtibia 66.1641 0 0
rfoot -23.7953 -25.5323 0
rtoes -26.0928 0 0
lowerback 13.5365 4.38991 4.30584
upperback -0.391285 6.89079 3.49193
thorax -7.94232 3.27635 -0.0698789
lowerneck -0.868326 15.7048 6.30032
upperneck 5.94607 21.4155 -7.13746
head 3.7227 10.6324 -2.38767
lclavicle 7.99896e-14 -5.26055e-14 0
lhumerus 64.7242 -32.0021 45.8102
lradius 51.7233 0 0
lwrist 18.2435 0 0
lhand -5.6571 32.5341 0
lfingers 7.12502 0 0
lthumb 20.1632 61.5378 0
rclavicle 7.99896e-14 -5.26055e-14 0
rhumerus -36.8716 28.3928 -76.3843
rradius 89.44 0 0
rwrist -30.1395 0 0
rhand -14.7398 -405.479 0
rfingers 7.12502 0 0
rthumb 11.412 284.904 0
1943
root 4.94474 13.7531 28.0903 1049.64 67.5882 326.49
lfemur -61.7487 6.50469 -3.64838
ltibia 67.734 0 0
lfoot -0.642509 0.572373 0
ltoes -32.1499 0 0
rfemur -4.52911 -2.4311 16.6348
rtibia 66.1889 0 0
rfoot -23.8174 -25.5487 0
rtoes -26.0882 0 0
lowerback 13.5423 4.37446 4.30761
upperback -0.390831 6.87185 3.49489
thorax -7.94582 3.26733 -0.064067
lowerneck -0.871624 15.6953 6.29738
upperneck 5.92942 21.4023 -7.14804
head 3.7175 10.6259 -2.39192
lclavicle 7.95567e-14 -5.27124e-14 0
lhumerus 64.6189 -32.0958 45.7336
lradius 51.9363 0 0
lwrist 18.3327 0 0
lhand -5.686 32.6069 0
lfingers 7.12502 0 0
lthumb 20.1354 61.6126 0
rclavicle 7.95567e-14 -5.27124e-14 0
rhumerus -36.9067 28.4279 -76.418
rradius 89.4649 0 0
rwrist -30.2047 0 0
rhand -14.6805 -405.464 0
rfingers 7.12502 0 0
rthumb 11.469 284.924 0
1944
root 4.80749 13.7664 28.1145 1049.25 67.5495 326.094
lfemur -61.7515 6.53839 -3.70037
ltibia 67.8002 0 0
lfoot -0.679438 0.624756 0
ltoes -32.1257 0 0
rfemur -4.59151 -2.46584 16.6564
rtibia 66.1992 0 0
rfoot -23.84 -25.5664 0
rtoes -26.0869 0 0
lowerback 13.5476 4.36086 4.31151
upperback -0.390609 6.85572 3.49849
thorax -7.94904 3.25959 -0.059254
lowerneck -0.874829 15.6861 6.295
upperneck 5.91456 21.3893 -7.1571
head 3.7128 10.6195 -2.39569
lclavicle 7.91059e-14 -5.27662e-14 0
lhumerus 64.5185 -32.158 45.6949
lradius 52.1087 0 0
lwrist 18.3564 0 0
lhand -5.72774 32.6778 0
lfingers 7.12502 0 0
lthumb 20.0951 61.6859 0
rclavicle 7.91059e-14 -5.27662e-14 0
rhumerus -36.9636 28.4509 -76.4601
rradius 89.5053 0 0
rwrist -30.2941 0 0
rhand -14.6277 -405.452 0
rfingers 7.12502 0 0
rthumb 11.5198 284.942 0
1945
root 4.67023 13.7798 28.1387 1048.9 67.5037 325.723
lfemur -61.7512 6.58366 -3.74631
ltibia 67.8678 0 0
lfoot -0.720346 0.671661 0
ltoes -32.1004 0 0
rfemur -4.6446 -2.50057 16.6776
rtibia 66.1962 0 0
rfoot -23.8634 -25.5859 0
rtoes -26.0886 0 0
lowerback 13.5527 4.34862 4.31751
upperback -0.3906 6.84178 3.50281
thorax -7.95209 3.25283 -0.0552463
lowerneck -0.878038 15.6769 6.29307
upperneck 5.90097 21.3763 -7.16499
head 3.70844 10.6131 -2.39913
lclavicle 7.86255e-14 -5.27715e-14 0
lhumerus 64.42 -32.1921 45.6906
lradius 52.2477 0 0
lwrist 18.319 0 0
lhand -5.78278 32.7489 0
lfingers 7.12502 0 0
lthumb 20.042 61.7599 0
rclavicle 7.86255e-14 -5.27715e-14 0
rhumerus -37.0428 28.4631 -76.5111
rradius 89.5614 0 0
rwrist -30.4089 0 0
rhand -14.5796 -405.44 0
rfingers 7.12502 0 0
rthumb 11.566 284.959 0
1946
root 4.53298 13.7931 28.1629 1048.55 67.4499 325.362
lfemur -61.7483 6.64082 -3.78811
ltibia 67.9387 0 0
lfoot -0.766108 0.714999 0
ltoes -32.0736 0 0
rfemur -4.69083 -2.53634 16.699
rtibia 66.1809 0 0
rfoot -23.8885 -25.6077 0
rtoes -26.0931 0 0
lowerback 13.5577 4.33724 4.32562
upperback -0.390784 6.8294 3.50792
thorax -7.95508 3.24677 -0.0518502
lowerneck -0.881347 15.6673 6.2915
upperneck 5.88812 21.3628 -7.17206
head 3.70426 10.6065 -2.40235
lclavicle 7.81036e-14 -5.27328e-14 0
lhumerus 64.3201 -32.2017 45.7177
lradius 52.3606 0 0
lwrist 18.2249 0 0
lhand -5.85159 32.8223 0
lfingers 7.12502 0 0
lthumb 19.9757 61.8366 0
rclavicle 7.81036e-14 -5.27328e-14 0
rhumerus -37.1446 28.4658 -76.5719
rradius 89.6334 0 0
rwrist -30.5503 0 0
rhand -14.5343 -405.429 0
rfingers 7.12502 0 0
rthumb 11.6095 284.975 0
1947
root 4.39572 13.8064 28.1871 1048.2 67.3875 324.999
lfemur -61.7428 6.71018 -3.82772
ltibia 68.0149 0 0
lfoot -0.817596 0.756679 0
ltoes -32.0444 0 0
rfemur -4.73264 -2.5742 16.7213
rtibia 66.1544 0 0
rfoot -23.9159 -25.6322 0
rtoes -26.1001 0 0
lowerback 13.5628 4.32625 4.33582
upperback -0.391141 6.81798 3.51387
thorax -7.95811 3.24111 -0.048872
lowerneck -0.884851 15.6571 6.29019
upperneck 5.8755 21.3484 -7.17864
head 3.70009 10.5994 -2.40551
lclavicle 7.75285e-14 -5.26546e-14 0
lhumerus 64.2157 -32.1903 45.7727
lradius 52.4546 0 0
lwrist 18.0784 0 0
lhand -5.93461 32.9001 0
lfingers 7.12502 0 0
lthumb 19.8956 61.9184 0
rclavicle 7.75285e-14 -5.26546e-14 0
rhumerus -37.2694 28.4604 -76.6432
rradius 89.7217 0 0
rwrist -30.7195 0 0
rhand -14.4899 -405.417 0
rfingers 7.12502 0 0
rthumb 11.6521 284.991 0
1948
root 4.25847 13.8197 28.2113 1047.84 67.3157 324.619
lfemur -61.7353 6.79207 -3.86707
ltibia 68.0982 0 0
lfoot -0.875684 0.798611 0
ltoes -32.0122 0 0
rfemur -4.77248 -2.61519 16.7452
rtibia 66.118 0 0
rfoot -23.946 -25.6597 0
rtoes -26.1096 0 0
lowerback 13.5681 4.31514 4.3481
upperback -0.391653 6.80689 3.52074
thorax -7.96129 3.23555 -0.0461181
lowerneck -0.888649 15.6461 6.28903
upperneck 5.86257 21.3327 -7.18508
head 3.69578 10.5918 -2.40873
lclavicle 7.68883e-14 -5.25415e-14 0
lhumerus 64.1038 -32.1616 45.8526
lradius 52.5368 0 0
lwrist 17.8841 0 0
lhand -6.0323 32.9845 0
lfingers 7.12502 0 0
lthumb 19.8014 62.0073 0
rclavicle 7.68883e-14 -5.25415e-14 0
rhumerus -37.4176 28.4483 -76.7256
rradius 89.8265 0 0
rwrist -30.9175 0 0
rhand -14.4447 -405.405 0
rfingers 7.12502 0 0
rthumb 11.6955 285.008 0
1949
root 4.12121 13.8331 28.2355 1047.44 67.2338 324.21
lfemur -61.7257 6.88681 -3.90809
ltibia 68.1906 0 0
lfoot -0.941245 0.842704 0
ltoes -31.9764 0 0
rfemur -4.81277 -2.66037 16.7715
rtibia 66.0726 0 0
rfoot -23.9796 -25.6907 0
rtoes -26.1212 0 0
lowerback 13.5738 4.30342 4.36245
upperback -0.392299 6.79552 3.52859
thorax -7.96473 3.22981 -0.0433948
lowerneck -0.892836 15.6339 6.28793
upperneck 5.84881 21.3155 -7.19172
head 3.69116 10.5833 -2.41214
lclavicle 7.61713e-14 -5.23981e-14 0
lhumerus 63.9811 -32.1191 45.9539
lradius 52.6145 0 0
lwrist 17.6463 0 0
lhand -6.14513 33.0775 0
lfingers 7.12502 0 0
lthumb 19.6926 62.1055 0
rclavicle 7.61713e-14 -5.23981e-14 0
rhumerus -37.5896 28.4308 -76.82
rradius 89.9481 0 0
rwrist -31.1457 0 0
rhand -14.3966 -405.393 0
rfingers 7.12502 0 0
rthumb 11.7417 285.025 0
1950
root 3.98396 13.8464 28.2597 1047.01 67.1411 323.758
lfemur -61.7145 6.99471 -3.95272
ltibia 68.294 0 0
lfoot -1.01515 0.890868 0
ltoes -31.9362 0 0
rfemur -4.85598 -2.71078 16.8006
rtibia 66.0195 0 0
rfoot -24.0174 -25.7257 0
rtoes -26.1347 0 0
lowerback 13.5802 4.29061 4.37886
upperback -0.39306 6.78324 3.53748
thorax -7.96854 3.22359 -0.0405084
lowerneck -0.897508 15.6203 6.28679
upperneck 5.83369 21.2962 -7.19891
head 3.68607 10.5739 -2.41589
lclavicle 7.53656e-14 -5.22289e-14 0
lhumerus 63.8445 -32.0664 46.0735
lradius 52.6949 0 0
lwrist 17.3694 0 0
lhand -6.27354 33.1814 0
lfingers 7.12502 0 0
lthumb 19.5688 62.2152 0
rclavicle 7.53656e-14 -5.22289e-14 0
rhumerus -37.7857 28.4092 -76.927
rradius 90.0868 0 0
rwrist -31.405 0 0
rhand -14.3438 -405.379 0
rfingers 7.12502 0 0
rthumb 11.7924 285.045 0
